<svg xmlns="http://www.w3.org/2000/svg" xmlns:xlink="http://www.w3.org/1999/xlink" width="true" height="true"
    viewBox="0 0 512 512" fill="none" class="h-full w-full" id="iconWithBackground">
    <rect id="r4" width="512" height="512" x="0" y="0" rx="256" fill="url(#linearGradient-iconWithBackground)"
        stroke="#000000" stroke-width="0" stroke-opacity="45%" paint-order="stroke" />
    <rect width="512" height="512" x="0" y="0" fill="url(#glare)" rx="256" style="mix-blend-mode: overlay;" />
    <defs>
        <linearGradient id="linearGradient-iconWithBackground" gradientUnits="userSpaceOnUse"
            gradientTransform="rotate(86)" style="transform-origin:center center">
            <stop stop-color="#009985" />
            <stop offset="1" stop-color="#000000" />
        </linearGradient>
        <radialGradient id="glare" cx="0" cy="0" r="1" gradientUnits="userSpaceOnUse"
            gradientTransform="translate(256) rotate(90) scale(512)">
            <stop stop-color="white" />
            <stop offset="1" stop-color="white" stop-opacity="0" />
        </radialGradient>
        <clipPath id="clip">
            <use xlink:href="#r4" />
        </clipPath>
    </defs><svg xmlns="http://www.w3.org/2000/svg" width="394" height="394" viewBox="0 0 36 36" x="59" y="59">
        <path fill="#ffffff"
            d="M18 32.625c-5.09 0-10.5-3.965-10.5-11.312c0-4.877 3.365-9.178 7.591-12.272C12.393 7.739 9.756 7 8 7c-2.708 0-5.499.914-5.527.923a1.5 1.5 0 0 1-.947-2.846C1.658 5.033 4.793 4 8 4c2.695 0 6.449 1.158 10.01 3.162C21.565 5.158 25.31 4 28 4c3.207 0 6.222 1.559 6.344 1.625c.781.422 1.312.699 1.125 1.266c-.182.551-.891.328-1.75.234c-.029-.003-2.156-.391-5.688-.391c-1.752 0-4.41 1.003-7.1 2.304c4.215 3.083 7.568 7.36 7.568 12.212C28.5 28.639 23.09 32.625 18 32.625zm.013-21.954c-4.03 2.585-7.513 6.345-7.513 10.642c0 6.056 4.6 8.312 7.5 8.312c2.899 0 7.5-2.273 7.5-8.375c0-4.27-3.468-8.005-7.487-10.579z" />
    </svg>
</svg>